<svg width="108" height="108" viewBox="0 0 108 108" fill="none" xmlns="http://www.w3.org/2000/svg">
<path d="M45.0202 17C44.6258 17 44.2352 17.0776 43.8708 17.2286C43.5065 17.3795 43.1754 17.6007 42.8965 17.8796C42.6176 18.1585 42.3963 18.4896 42.2454 18.854C42.0945 19.2184 42.0168 19.609 42.0168 20.0034V22.0056C42.0168 22.8021 41.7004 23.5658 41.1372 24.129C40.5741 24.6922 39.8103 25.0086 39.0139 25.0086H37.0116C36.6172 25.0086 36.2266 25.0863 35.8622 25.2372C35.4978 25.3881 35.1667 25.6094 34.8878 25.8882C34.6089 26.1671 34.3877 26.4982 34.2368 26.8626C34.0859 27.227 34.0082 27.6176 34.0082 28.012V30.0143V38.0229C34.0081 38.8193 33.6917 39.5831 33.1286 40.1462C32.5654 40.7094 31.8017 41.0258 31.0052 41.0259H29.003C28.2065 41.0259 27.4426 41.3424 26.8795 41.9056C26.3163 42.4689 26 43.2328 26 44.0293V46.0315V54.0401V62.0483V70.057C26 70.8535 26.3163 71.6173 26.8795 72.1806C27.4426 72.7438 28.2065 73.0603 29.003 73.0603H31.0052C31.8017 73.0604 32.5656 73.3769 33.1287 73.9401C33.6919 74.5034 34.0083 75.2672 34.0082 76.0637V78.0656C34.0082 78.46 34.0859 78.8506 34.2368 79.215C34.3877 79.5794 34.6089 79.9104 34.8878 80.1893C35.1667 80.4682 35.4978 80.6895 35.8622 80.8404C36.2266 80.9913 36.6172 81.069 37.0116 81.069H39.0139H47.0225H51.624V90.4957C51.6237 90.8839 51.9381 91.1992 52.3264 91.1997H55.7323C56.1211 91.2 56.4362 90.8844 56.436 90.4957V81.069H63.0397H71.0483C71.8448 81.0689 72.6087 80.7524 73.1718 80.1892C73.735 79.626 74.0514 78.8621 74.0513 78.0656V76.0637C74.0513 75.6693 74.129 75.2788 74.2799 74.9144C74.4308 74.55 74.652 74.2189 74.9309 73.94C75.2098 73.6611 75.5409 73.4398 75.9053 73.2889C76.2697 73.138 76.6603 73.0603 77.0547 73.0603H79.0565C79.451 73.0604 79.8415 72.9827 80.2059 72.8318C80.5703 72.6808 80.9014 72.4596 81.1803 72.1807C81.4592 71.9018 81.6804 71.5707 81.8314 71.2063C81.9823 70.8419 82.06 70.4514 82.0599 70.057V68.0551V60.0465V52.0379V44.0293C82.06 43.6348 81.9823 43.2443 81.8314 42.8799C81.6804 42.5155 81.4592 42.1844 81.1803 41.9055C80.9014 41.6266 80.5703 41.4054 80.2059 41.2544C79.8415 41.1035 79.451 41.0258 79.0565 41.0259H77.0547C76.2582 41.0259 75.4943 40.7096 74.9311 40.1464C74.3678 39.5832 74.0514 38.8194 74.0513 38.0229V36.0206V28.012C74.0514 27.2155 73.735 26.4516 73.1718 25.8884C72.6087 25.3251 71.8448 25.0087 71.0483 25.0086H69.0461C68.2496 25.0087 67.4857 24.6923 66.9225 24.1291C66.3592 23.566 66.0428 22.8021 66.0427 22.0056V20.0034C66.0427 19.2069 65.7264 18.443 65.1632 17.8798C64.6001 17.3165 63.8362 17.0001 63.0397 17H61.0375C60.643 17 60.2525 17.0776 59.8881 17.2286C59.5237 17.3795 59.1926 17.6007 58.9137 17.8796C58.6348 18.1585 58.4136 18.4896 58.2626 18.854C58.1117 19.2184 58.034 19.609 58.0341 20.0034V22.0056C58.034 22.8021 57.7176 23.5658 57.1544 24.129C56.5913 24.6922 55.8275 25.0086 55.0311 25.0086H53.0288C52.2323 25.0087 51.4685 24.6923 50.9052 24.1291C50.342 23.566 50.0255 22.8021 50.0255 22.0056V20.0034C50.0255 19.2069 49.7091 18.443 49.146 17.8798C48.5828 17.3165 47.819 17.0001 47.0225 17H45.0202ZM53.0305 81.069H55.0299V89.7932H53.0305V81.069Z" fill="#004852"/>
<path d="M58.0021 41.0334V49.8592H61.6434V41.0334H58.0021ZM49.9028 41.0334H46.4344V49.8592H49.9028V41.0334Z" fill="#ADFEFD"/>
<path d="M46.2225 61.953C45.8418 61.9524 45.5324 62.302 45.532 62.7326V67.1162C45.532 69.5408 47.2697 71.5058 49.4127 71.5052H58.6469C60.7899 71.5058 62.5276 69.5408 62.5276 67.1162V62.7326C62.5272 62.302 62.2178 61.9524 61.8371 61.953H46.2225Z" fill="#20DFD9"/>
<path d="M58.9859 53.8936L58.298 54.5627L58.2874 61.953H61.1823L61.1837 54.612L60.5052 53.9202L58.9859 53.8936ZM48.984 54.0186L47.5579 54.0399L46.8767 54.7317L46.8873 61.953H49.6652V54.6891L48.984 54.0186Z" fill="#ADFEFD"/>
<path d="M52.327 71.512V90.4961H55.7327V71.512H52.327Z" fill="#ADFEFD"/>
</svg>
