<?xml version="1.0" encoding="UTF-8" standalone="no"?>
<svg
   width="1920"
   height="1920"
   viewBox="0 0 1920 1920"
   version="1.1"
   id="svg11"
   sodipodi:docname="Source-1920.svg"
   inkscape:version="1.4 (e7c3feb100, 2024-10-09)"
   inkscape:export-batch-path="../../01-Output"
   inkscape:export-batch-name=""
   xmlns:inkscape="http://www.inkscape.org/namespaces/inkscape"
   xmlns:sodipodi="http://sodipodi.sourceforge.net/DTD/sodipodi-0.dtd"
   xmlns="http://www.w3.org/2000/svg"
   xmlns:svg="http://www.w3.org/2000/svg">
  <style
     id="style1"><![CDATA[
#keylines circle, #keylines rect { 
   vector-effect: non-scaling-stroke;
   fill: none;
   stroke: #0000FF;
}
#mask path, #mask rect, #mask circle, #hatching path { 
   vector-effect: non-scaling-stroke;
   fill: none;
   stroke: #FF0000;
}
#keylines, #mask {
   opacity: 0.5;
}
]]></style>
  <inkscape:_templateinfo>
    <inkscape:_name>Android O icon template</inkscape:_name>
    <inkscape:author>Venceslas DUET</inkscape:author>
    <inkscape:_shortdesc>A collection of keylines and guides used to make adaptive icons for android O</inkscape:_shortdesc>
    <inkscape:date>2021-02-14</inkscape:date>
    <inkscape:_keywords>Android Icon Adaptive Keylines</inkscape:_keywords>
  </inkscape:_templateinfo>
  <defs
     id="defs1" />
  <sodipodi:namedview
     id="base"
     inkscape:current-layer="layer1-54"
     showgrid="true"
     units="px"
     showguides="true"
     inkscape:guide-bbox="true"
     inkscape:document-units="px"
     inkscape:cx="4528"
     inkscape:cy="3592"
     pagecolor="#ffffff"
     bordercolor="#000000"
     borderopacity="0.25"
     inkscape:showpageshadow="2"
     inkscape:pageopacity="0.0"
     inkscape:pagecheckerboard="0"
     inkscape:deskcolor="#d1d1d1"
     inkscape:zoom="0.0625"
     inkscape:window-width="1904"
     inkscape:window-height="980"
     inkscape:window-x="8"
     inkscape:window-y="33"
     inkscape:window-maximized="1">
    <inkscape:grid
       type="xygrid"
       empspacing="8"
       id="grid1"
       originx="3773.0938"
       originy="-64"
       spacingy="1"
       spacingx="1"
       units="px" />
    <inkscape:page
       x="0"
       y="0"
       width="1920"
       height="1920"
       id="page1"
       margin="0"
       bleed="0"
       inkscape:label="Dark-Monochrome" />
  </sodipodi:namedview>
  <g
     inkscape:groupmode="layer"
     id="Dark-Monochrome"
     inkscape:label="Dark-Monochrome"
     transform="matrix(3.7426901,0,0,3.7426901,-3907.3685,-1.4093075e-8)">
    <g
       inkscape:label="Logo"
       inkscape:groupmode="layer"
       id="layer1-7"
       transform="translate(522.5,0.50000001)">
      <rect
         style="fill:#000000;fill-opacity:1;stroke:none;stroke-width:6.79398;stroke-linecap:round;stroke-linejoin:round;stroke-miterlimit:15;stroke-opacity:0;paint-order:markers stroke fill"
         id="rect1-4-3"
         width="512"
         height="512"
         x="522"
         y="0"
         inkscape:label="BG" />
      <path
         id="path111-6"
         style="fill:#ffffff;fill-opacity:1;stroke-width:8.96851;stroke-linecap:round;stroke-linejoin:round;stroke-miterlimit:15;paint-order:fill markers stroke"
         inkscape:label="brain"
         d="m 735.8438,80.02734 a 14.2375,14.2375 0 0 0 -14.2383,14.238276 v 9.492184 a 14.2375,14.2375 0 0 1 -14.2364,14.23634 h -9.4922 a 14.2375,14.2375 0 0 0 -14.2382,14.23827 v 9.49219 37.9668 a 14.2375,14.2375 0 0 1 -14.2364,14.23634 h -9.4921 a 14.2375,14.2375 0 0 0 -14.2364,14.23827 v 9.49219 37.96679 37.96487 37.96679 a 14.2375,14.2375 0 0 0 14.2364,14.23828 h 9.4921 a 14.2375,14.2375 0 0 1 14.2364,14.23828 v 9.49024 a 14.2375,14.2375 0 0 0 14.2382,14.23828 h 9.4922 37.9668 21.8145 v 44.68944 c -10e-4,1.84063 1.4895,3.33549 3.3301,3.33788 h 16.1465 c 1.843,0.001 3.337,-1.49479 3.3359,-3.33788 v -44.68944 h 31.3066 37.9668 a 14.2375,14.2375 0 0 0 14.2364,-14.23828 v -9.49024 a 14.2375,14.2375 0 0 1 14.2382,-14.23828 h 9.4903 a 14.2375,14.2375 0 0 0 14.2383,-14.23828 v -9.49024 -37.9668 -37.9668 -37.9668 a 14.2375,14.2375 0 0 0 -14.2383,-14.23827 h -9.4903 A 14.2375,14.2375 0 0 1 873.4727,179.6914 v -9.49219 -37.9668 a 14.2375,14.2375 0 0 0 -14.2364,-14.23827 h -9.4922 A 14.2375,14.2375 0 0 1 835.5059,103.7578 V 94.265616 A 14.2375,14.2375 0 0 0 821.2695,80.02734 h -9.4922 a 14.2375,14.2375 0 0 0 -14.2382,14.238276 v 9.492184 a 14.2375,14.2375 0 0 1 -14.2364,14.23634 h -9.4922 A 14.2375,14.2375 0 0 1 759.5723,103.7578 V 94.265616 A 14.2375,14.2375 0 0 0 745.3359,80.02734 Z m 6.705,113.93556 h 16.4414 v 41.84179 h -16.4414 z m 54.8399,0 h 17.2617 v 41.84179 h -17.2617 z m 4.664,60.96679 7.2012,0.1269 3.2168,3.2793 -0.01,34.80078 h 3.1036 c 1.8045,-0.003 3.2712,1.65567 3.2734,3.69729 v 20.78124 c 0,11.49415 -8.2372,20.8098 -18.3965,20.80663 h -43.7773 c -10.1594,0.003 -18.3985,-9.31248 -18.3985,-20.80663 v -20.78124 c 0,-2.04162 1.4689,-3.70036 3.2734,-3.69729 h 3.1524 l -0.051,-34.23435 3.2305,-3.2793 6.7617,-0.0998 3.2285,3.17775 v 34.43552 h 40.875 l 0.051,-35.03515 z m -31.5683,83.5254 h 16.1445 v 89.99805 h -16.1445 z" />
    </g>
  </g>
</svg>
