<?xml version="1.0" encoding="UTF-8" standalone="no"?>
<svg
   width="512"
   height="512"
   viewBox="0 0 512 512"
   version="1.1"
   id="svg11"
   xmlns="http://www.w3.org/2000/svg"
   xmlns:svg="http://www.w3.org/2000/svg">
  <style
     id="style1"><![CDATA[
#keylines circle, #keylines rect { 
   vector-effect: non-scaling-stroke;
   fill: none;
   stroke: #0000FF;
}
#mask path, #mask rect, #mask circle, #hatching path { 
   vector-effect: non-scaling-stroke;
   fill: none;
   stroke: #FF0000;
}
#keylines, #mask {
   opacity: 0.5;
}
]]></style>
  <defs
     id="defs1" />
  <g
     id="layer9"
     transform="translate(0.5,0.49999721)"
     style="display:inline;opacity:1">
    <g
       id="layer1-8">
      <rect
         style="display:inline;opacity:1;fill:none;stroke:none;stroke-width:1.998;stroke-linecap:round;stroke-linejoin:round;stroke-miterlimit:15;paint-order:markers stroke fill"
         id="rect4"
         width="512"
         height="512"
         x="-0.5"
         y="-0.4999972" />
      <path
         id="path111-60"
         style="opacity:1;mix-blend-mode:normal;fill:#000000;fill-opacity:1;stroke-width:8.96851;stroke-linecap:round;stroke-linejoin:round;stroke-miterlimit:15;paint-order:fill markers stroke"
         d="m 213.84375,80.02734 a 14.2375,14.2375 0 0 0 -14.23828,14.238276 v 9.492184 a 14.2375,14.2375 0 0 1 -14.23634,14.23634 h -9.49218 a 14.2375,14.2375 0 0 0 -14.23828,14.23827 v 9.49219 37.9668 a 14.2375,14.2375 0 0 1 -14.23634,14.23634 h -9.49218 a 14.2375,14.2375 0 0 0 -14.23631,14.23827 v 9.49219 37.96679 37.96487 37.96679 a 14.2375,14.2375 0 0 0 14.23631,14.23828 h 9.49218 a 14.2375,14.2375 0 0 1 14.23634,14.23828 v 9.49024 a 14.2375,14.2375 0 0 0 14.23828,14.23828 h 9.49218 37.9668 21.81446 v 44.68944 c -10e-4,1.84063 1.48946,3.33549 3.33009,3.33788 h 16.14647 c 1.84308,0.001 3.33703,-1.49479 3.33594,-3.33788 v -44.68944 h 31.30664 37.96679 a 14.2375,14.2375 0 0 0 14.23634,-14.23828 v -9.49024 a 14.2375,14.2375 0 0 1 14.23828,-14.23828 h 9.49025 a 14.2375,14.2375 0 0 0 14.23827,-14.23828 v -9.49024 -37.9668 -37.9668 -37.9668 a 14.2375,14.2375 0 0 0 -14.23827,-14.23827 h -9.49025 A 14.2375,14.2375 0 0 1 351.47266,179.6914 v -9.49219 -37.9668 a 14.2375,14.2375 0 0 0 -14.23634,-14.23827 h -9.49218 A 14.2375,14.2375 0 0 1 313.50586,103.7578 V 94.265616 A 14.2375,14.2375 0 0 0 299.26953,80.02734 h -9.49219 a 14.2375,14.2375 0 0 0 -14.23827,14.238276 v 9.492184 a 14.2375,14.2375 0 0 1 -14.23634,14.23634 h -9.49219 A 14.2375,14.2375 0 0 1 237.57227,103.7578 V 94.265616 A 14.2375,14.2375 0 0 0 223.33593,80.02734 Z m 6.70507,113.93556 h 16.44142 v 41.84179 h -16.44142 z m 54.83986,0 h 17.2617 v 41.84179 h -17.2617 z m 4.66404,60.96679 7.20118,0.1269 3.21681,3.2793 -0.006,34.80078 h 3.10354 c 1.80453,-0.003 3.27129,1.65567 3.27342,3.69729 v 20.78124 c 4e-5,11.49415 -8.23716,20.8098 -18.39649,20.80663 h -43.77733 c -10.15933,0.003 -18.39846,-9.31248 -18.39843,-20.80663 v -20.78124 c 0.002,-2.04162 1.46889,-3.70036 3.27342,-3.69729 h 3.15236 l -0.0507,-34.23435 3.23048,-3.2793 6.76172,-0.0998 3.2285,3.17775 v 34.43552 h 40.875 l 0.0507,-35.03515 z m -31.56833,83.5254 h 16.14453 v 89.99805 h -16.14453 z" />
    </g>
  </g>
</svg>
